<?xml version="1.0"?>
<svg xmlns="http://www.w3.org/2000/svg" viewBox="0 0 64 64" width="512" height="512"><g id="Typewriter"><path d="M38,38.184V35a1,1,0,0,0-1-1H27a1,1,0,0,0-.713.3A2.994,2.994,0,0,1,28,37v3h8.184A3,3,0,0,1,38,38.184Z"/><path d="M54,60V56a1,1,0,0,1,.071-.371L56,50.808V41a1,1,0,0,0-2,0v2a1,1,0,0,1-2,0V40a1,1,0,0,0-2,0v3a1,1,0,0,1-2,0V39a1,1,0,0,0-2,0v4a1,1,0,0,1-2,0V31a1,1,0,0,0-2,0V47a1,1,0,0,1-2,0V41a1,1,0,0,0-2,0v9.649l3.781,4.726A1,1,0,0,1,42,56v4Z"/><path d="M59,43V10H5V43a1,1,0,0,0,1,1V36a3,3,0,0,1,4-2.829V32a3,3,0,0,1,4.472-2.613,3,3,0,0,1,5.056,0A3,3,0,0,1,24,32v2.171c.046-.016.1-.023.143-.037A2.993,2.993,0,0,1,27,32H37a3,3,0,0,1,3,3V31a3,3,0,0,1,6,0v5.171a3,3,0,0,1,3.528,1.216,3,3,0,0,1,4,1A3,3,0,0,1,58,41v3A1,1,0,0,0,59,43ZM9,12h2v2H9Zm0,4h2v2H9Zm0,4h2v2H9Zm6,6H9V24h6Zm0-4H13V20h2Zm0-4H13V16h2Zm0-4H13V12h2Zm4,12H17V24h2Zm0-4H17V20h2Zm0-4H17V16h2Zm0-4H17V12h2Zm4,12H21V24h2Zm0-4H21V20h2Zm0-4H21V16h2Zm0-4H21V12h2Zm10-2h2v2H33Zm0,4h2v2H33Zm0,4h2v2H33Zm0,4h2v2H33ZM29,12h2v2H29Zm0,4h2v2H29Zm0,4h2v2H29Zm0,4h2v2H29ZM25,12h2v2H25Zm0,4h2v2H25Zm0,4h2v2H25Zm0,4h2v2H25Zm14,6H25V28H39Zm0-4H37V24h2Zm0-4H37V20h2Zm0-4H37V16h2Zm0-4H37V12h2Zm10-2h2v2H49Zm0,4h2v2H49Zm0,4h2v2H49Zm-6,6H41V24h2Zm0-4H41V20h2Zm0-4H41V16h2Zm0-4H41V12h2Zm4,12H45V24h2Zm0-4H45V20h2Zm0-4H45V16h2Zm0-4H45V12h2Zm8,16H49V28h6Zm0-4H49V24h6Zm0-4H53V20h2Zm0-4H53V16h2Zm0-4H53V12h2Z"/><path d="M9,35a1,1,0,0,0-1,1v9.723l2.857,4.762A1,1,0,0,1,11,51v3H22V51a1,1,0,0,1,.293-.707L26,46.586V37a1,1,0,0,0-2,0v6a1,1,0,0,1-2,0V32a1,1,0,0,0-2,0v7a1,1,0,0,1-2,0V31a1,1,0,0,0-2,0v8a1,1,0,0,1-2,0V32a1,1,0,0,0-2,0v7a1,1,0,0,1-2,0V36A1,1,0,0,0,9,35Z"/><rect x="28" y="42" width="8" height="2"/><path d="M60,5a1,1,0,0,0-1-1H5A1,1,0,0,0,4,5V8H60Z"/><rect x="10" y="56" width="14" height="4"/></g></svg>
